<svg width="42.53" height="70.215" viewBox="0 0 42.53 70.215" xmlns="http://www.w3.org/2000/svg"><g id="svgGroup" stroke-linecap="round" fill-rule="evenodd" font-size="9pt" stroke="#000" stroke-width="0.25mm" fill="#000" style="stroke:#000;stroke-width:0.25mm;fill:#000"><path d="M 0 58.789 L 5.762 54.15 Q 6.934 56.787 9.155 58.447 Q 11.377 60.107 13.94 60.889 Q 16.504 61.67 18.75 61.67 Q 24.17 61.67 27.319 59.546 Q 30.469 57.422 31.787 54.102 Q 33.105 50.781 33.105 47.266 Q 33.105 40.723 29.541 37.256 Q 25.977 33.789 19.336 33.789 Q 15.186 33.789 12.28 35.693 Q 9.375 37.598 8.008 39.16 L 2.295 37.793 L 2.295 0 L 38.428 0 L 38.428 8.398 L 11.523 8.398 L 10.059 29.346 Q 12.109 28.076 15.015 26.978 Q 17.92 25.879 21.729 25.879 Q 28.174 25.879 32.837 28.613 Q 37.5 31.348 40.015 36.133 Q 42.529 40.918 42.529 47.07 Q 42.529 57.52 36.157 63.867 Q 29.785 70.215 18.457 70.215 Q 11.963 70.215 6.909 67.31 Q 1.855 64.404 0 58.789 Z" vector-effect="non-scaling-stroke"/></g></svg>